<?xml version="1.0" standalone="no"?>
<!DOCTYPE svg PUBLIC "-//W3C//DTD SVG 20010904//EN"
 "http://www.w3.org/TR/2001/REC-SVG-20010904/DTD/svg10.dtd">
<svg version="1.0" xmlns="http://www.w3.org/2000/svg"
 width="1280.000000pt" height="1208.000000pt" viewBox="0 0 1280.000000 1208.000000"
 preserveAspectRatio="xMidYMid meet">
<metadata>
Created by potrace 1.15, written by Peter Selinger 2001-2017
</metadata>
<g transform="translate(0.000000,1208.000000) scale(0.100000,-0.100000)"
fill="#000000" stroke="none">
<path d="M4020 9823 c-1229 -1240 -2548 -2571 -2930 -2957 -382 -386 -749
-757 -815 -824 l-119 -123 369 -369 370 -370 426 426 425 425 12 -913 c7 -502
17 -1190 22 -1528 5 -338 14 -957 20 -1375 6 -418 15 -1030 20 -1360 6 -330
10 -657 10 -727 l0 -128 4769 0 4769 0 6 337 c3 186 9 1500 12 2920 4 1421 7
2583 8 2583 1 0 115 -113 253 -252 l251 -252 376 369 377 369 -439 440 c-241
243 -1437 1449 -2657 2681 -1220 1232 -2363 2385 -2539 2563 l-320 322 -221 0
-220 -1 -2235 -2256z m3347 86 c483 -488 1429 -1442 2102 -2122 l1224 -1235
-2 -708 c0 -390 -4 -1707 -8 -2926 l-6 -2218 -4079 0 -4078 0 0 118 c0 64 -5
403 -10 752 -5 349 -14 968 -20 1375 -6 407 -15 1028 -20 1380 -5 352 -15
1025 -21 1496 l-12 856 319 349 c180 198 559 592 874 909 1349 1360 2730 2755
2780 2808 30 32 60 56 67 55 7 -2 408 -402 890 -889z"/>
<path d="M4900 5057 c-49 -23 -77 -48 -101 -89 l-24 -43 0 -1990 0 -1990 23
-42 c12 -24 41 -55 64 -70 l42 -28 1683 -3 c1656 -2 1684 -2 1722 17 48 25 87
71 101 119 8 26 10 630 8 2012 l-3 1975 -21 40 c-11 22 -40 54 -63 70 l-43 30
-1681 2 c-1269 1 -1688 -1 -1707 -10z m3120 -2122 l0 -1745 -1425 0 -1425 0 0
1745 0 1745 1425 0 1425 0 0 -1745z"/>
</g>
</svg>
